<svg xmlns="http://www.w3.org/2000/svg" viewBox="0 0 512 512"><circle cx="256" cy="256" r="242" fill="#fff" stroke="#000" stroke-width="14"/><circle cx="256" cy="256" r="226" fill="none" stroke="#000" stroke-width="8"/><circle cx="256" cy="256" r="204" fill="#fff" stroke="#000" stroke-width="10"/><text x="256" y="91" fill="#000" font-family="Arial,sans-serif" font-size="43" font-weight="800" text-anchor="middle">UMV TETAHALI</text><path d="M145 300 Q256 345 367 300" fill="none" stroke="#000" stroke-width="14"/><path d="M176 267 Q256 232 336 267" fill="none" stroke="#000" stroke-width="11"/><circle cx="256" cy="202" r="40" fill="#000"/><g stroke="#000" stroke-width="9"><path d="M256 150v-34"/><path d="M221 160l-20-28"/><path d="M291 160l20-28"/><path d="M207 188l-32-10"/><path d="M305 188l32-10"/></g><text x="256" y="355" fill="#000" font-family="Noto Sans Devanagari,Arial,sans-serif" font-size="25" font-weight="700" text-anchor="middle">विद्या ददाति विनयम्</text><path d="M180 389 Q215 365 256 399 Q297 365 332 389" fill="none" stroke="#000" stroke-width="8"/><path d="M256 399v-32" stroke="#000" stroke-width="7"/><path d="M256 379q-23-23-45-17M256 387q23-23 45-17" fill="none" stroke="#000" stroke-width="7"/><text x="256" y="449" fill="#000" font-family="Arial,sans-serif" font-size="32" font-weight="800" text-anchor="middle">10160203806</text><circle cx="85" cy="256" r="16" fill="#000"/><circle cx="427" cy="256" r="16" fill="#000"/></svg>